# xmcd CD database file
#
# Track frame offsets:
#	182
#	16582
#	31592
#	45187
#	56940
#	76825
#	91152
#	103445
#	117185
#	131835
#	145315
#	160360
#	170862
#	181310
#	194682
#	206680
#	217797
#	230832
#	243697
#	265887
#
# Disc length: 3748 seconds
#
# Revision: 1
# Processed by: cddbd v1.4PL0 Copyright (c) Steve Scherf et al.
# Submitted via: CDex 1.50Beta7
#
DISCID=1f0ea214
DTITLE=Various Artist - Great Pioneers
DYEAR=1995
DGENRE=Jazz
TTITLE0=Mack The Knife_Louis Armstrong
TTITLE1=Blueberry Hill_Louis Armstrong
TTITLE2=What A Litlle Monnlight Can Do_Billie Holiday&Teddy Wilson'S Orchestra
TTITLE3=See See Rider_Ray Charles Trio
TTITLE4=Indiana_Louis Armstrong&His All Stars
TTITLE5=Someday_Ray Charles and His Band
TTITLE6=Back In Your Own Back Yard_Billes Holiday&Her Orchestra
TTITLE7=Baby Let Me Hold Your Hand_Ray Charles Trio
TTITLE8=Strange Fruit_Billie Holiday&Her Orchestra
TTITLE9=Struttin' With Some Barbecue_Louis Armstrong&His Orchestra
TTITLE10=Fine And Mellow_Billie Holiday&Her Orchestra
TTITLE11=Wonderful World_Louis Armstrong
TTITLE12=Ain'T That Fine_Ray Charles Trio
TTITLE13=God Bless The Child_Billie Holiday&Her Orchestra
TTITLE14=Billie'S Blues_Billie Holiday&Her Orchestra
TTITLE15=Sentmental Blues_Ray Charles Trio
TTITLE16=Why Was I Born?_Billie Holiday&Teddy Wilson'S Orchestra
TTITLE17=The Snow Is Fallin'_Ray Charles Band
TTITLE18=La Vie En Rose_Louis Armstrong&His All Stars
TTITLE19=When The Saints Go Marching In_Louis Armstrong
EXTD=YEAR: 1995
EXTT0=
EXTT1=
EXTT2=
EXTT3=
EXTT4=
EXTT5=
EXTT6=
EXTT7=
EXTT8=
EXTT9=
EXTT10=
EXTT11=
EXTT12=
EXTT13=
EXTT14=
EXTT15=
EXTT16=
EXTT17=
EXTT18=
EXTT19=
PLAYORDER=
